<?xml version="1.0" encoding="UTF-8" standalone="no"?>
<!DOCTYPE svg PUBLIC "-//W3C//DTD SVG 1.1//EN"
 "http://www.w3.org/Graphics/SVG/1.1/DTD/svg11.dtd">
<!-- Generated by graphviz version 2.26.3 (20100126.1600)
 -->
<!-- Title: _anonymous_0 Pages: 1 -->
<svg width="785pt" height="472pt"
 viewBox="0.00 0.00 784.50 472.00" xmlns="http://www.w3.org/2000/svg" xmlns:xlink="http://www.w3.org/1999/xlink">
<g id="graph1" class="graph" transform="scale(1 1) rotate(0) translate(4 468)">
<title>_anonymous_0</title>
<polygon fill="white" stroke="white" points="-4,5 -4,-468 781.5,-468 781.5,5 -4,5"/>
<!-- 314 -->
<g id="node1" class="node"><title>314</title>
<ellipse fill="none" stroke="black" cx="198.5" cy="-100" rx="197" ry="99"/>
<text text-anchor="middle" x="198.5" y="-96.4" font-family="Times Roman,serif" font-size="14.00">314</text>
</g>
<!-- 314&#45;&#45;314 -->
<g id="edge2" class="edge"><title>314&#45;&#45;314</title>
<path fill="none" stroke="black" d="M395.48,-104.58C406.76,-103.48 413.5,-101.95 413.5,-100 413.5,-98.72 410.6,-97.621 405.42,-96.705"/>
<polygon fill="black" stroke="black" points="405.847,-93.2312 395.48,-95.416 404.947,-100.173 405.847,-93.2312"/>
</g>
<!-- 442 -->
<g id="node3" class="node"><title>442</title>
<ellipse fill="none" stroke="black" cx="561.5" cy="-364" rx="197" ry="99"/>
<text text-anchor="middle" x="561.5" y="-360.4" font-family="Times Roman,serif" font-size="14.00">442</text>
</g>
<!-- 442&#45;&#45;442 -->
<g id="edge4" class="edge"><title>442&#45;&#45;442</title>
<path fill="none" stroke="black" d="M758.48,-368.58C769.76,-367.48 776.5,-365.95 776.5,-364 776.5,-362.72 773.6,-361.62 768.42,-360.71"/>
<polygon fill="black" stroke="black" points="768.847,-357.236 758.48,-359.42 767.946,-364.178 768.847,-357.236"/>
</g>
</g>
</svg>
