<?xml version="1.0" encoding="UTF-8" standalone="no"?>
<!DOCTYPE svg PUBLIC "-//W3C//DTD SVG 1.1//EN"
 "http://www.w3.org/Graphics/SVG/1.1/DTD/svg11.dtd">
<!-- Generated by graphviz version 2.26.3 (20100126.1600)
 -->
<!-- Title: _anonymous_0 Pages: 1 -->
<svg width="599pt" height="472pt"
 viewBox="0.00 0.00 599.01 471.74" xmlns="http://www.w3.org/2000/svg" xmlns:xlink="http://www.w3.org/1999/xlink">
<g id="graph1" class="graph" transform="scale(1 1) rotate(0) translate(4 467.74)">
<title>_anonymous_0</title>
<polygon fill="white" stroke="white" points="-4,5 -4,-467.74 596.01,-467.74 596.01,5 -4,5"/>
<!-- 8 -->
<g id="node1" class="node"><title>8</title>
<ellipse fill="none" stroke="black" cx="478.49" cy="-343.76" rx="17.7778" ry="18.5"/>
<text text-anchor="middle" x="478.49" y="-340.16" font-family="Times Roman,serif" font-size="14.00">8</text>
</g>
<!-- 7 -->
<g id="node2" class="node"><title>7</title>
<ellipse fill="none" stroke="black" cx="478.49" cy="-444.24" rx="17.7778" ry="18.5"/>
<text text-anchor="middle" x="478.49" y="-440.64" font-family="Times Roman,serif" font-size="14.00">7</text>
</g>
<!-- 8&#45;&#45;7 -->
<g id="edge2" class="edge"><title>8&#45;&#45;7</title>
<path fill="none" stroke="black" d="M478.49,-362.66C478.49,-377.4 478.49,-398.12 478.49,-414.99"/>
<polygon fill="black" stroke="black" points="474.99,-415.42 478.49,-425.42 481.99,-415.42 474.99,-415.42"/>
</g>
<!-- 28 -->
<g id="node4" class="node"><title>28</title>
<ellipse fill="none" stroke="black" cx="565.51" cy="-394" rx="24.0945" ry="18.5"/>
<text text-anchor="middle" x="565.51" y="-390.4" font-family="Times Roman,serif" font-size="14.00">28</text>
</g>
<!-- 7&#45;&#45;28 -->
<g id="edge4" class="edge"><title>7&#45;&#45;28</title>
<path fill="none" stroke="black" d="M494.45,-435.02C506.37,-428.15 522.96,-418.57 537.12,-410.39"/>
<polygon fill="black" stroke="black" points="539.085,-413.297 546,-405.27 535.589,-407.233 539.085,-413.297"/>
</g>
<!-- 28&#45;&#45;8 -->
<g id="edge6" class="edge"><title>28&#45;&#45;8</title>
<path fill="none" stroke="black" d="M546.2,-382.85C533.51,-375.52 516.79,-365.87 503.14,-357.99"/>
<polygon fill="black" stroke="black" points="504.68,-354.838 494.27,-352.87 501.181,-360.901 504.68,-354.838"/>
</g>
<!-- 13 -->
<g id="node7" class="node"><title>13</title>
<ellipse fill="none" stroke="black" cx="345.5" cy="-362" rx="74" ry="37"/>
<text text-anchor="middle" x="345.5" y="-358.4" font-family="Times Roman,serif" font-size="14.00">13</text>
</g>
<!-- 13&#45;&#45;13 -->
<g id="edge8" class="edge"><title>13&#45;&#45;13</title>
<path fill="none" stroke="black" d="M418.76,-368.16C429.92,-367.22 437.5,-365.16 437.5,-362 437.5,-359.92 434.24,-358.33 428.84,-357.21"/>
<polygon fill="black" stroke="black" points="429.14,-353.719 418.76,-355.84 428.198,-360.655 429.14,-353.719"/>
</g>
<!-- 5 -->
<g id="node9" class="node"><title>5</title>
<ellipse fill="none" stroke="black" cx="266.5" cy="-134" rx="265" ry="133"/>
<text text-anchor="middle" x="266.5" y="-130.4" font-family="Times Roman,serif" font-size="14.00">5</text>
</g>
<!-- 5&#45;&#45;5 -->
<g id="edge10" class="edge"><title>5&#45;&#45;5</title>
<path fill="none" stroke="black" d="M531.47,-138.11C542.87,-137.06 549.5,-135.69 549.5,-134 549.5,-132.89 546.64,-131.92 541.46,-131.09"/>
<polygon fill="black" stroke="black" points="541.816,-127.608 531.47,-129.89 540.981,-134.558 541.816,-127.608"/>
</g>
</g>
</svg>
