<?xml version="1.0" encoding="UTF-8" standalone="no"?>
<!DOCTYPE svg PUBLIC "-//W3C//DTD SVG 1.1//EN"
 "http://www.w3.org/Graphics/SVG/1.1/DTD/svg11.dtd">
<!-- Generated by graphviz version 2.26.3 (20100126.1600)
 -->
<!-- Title: _anonymous_0 Pages: 1 -->
<svg width="762pt" height="829pt"
 viewBox="0.00 0.00 761.74 829.26" xmlns="http://www.w3.org/2000/svg" xmlns:xlink="http://www.w3.org/1999/xlink">
<g id="graph1" class="graph" transform="scale(1 1) rotate(0) translate(4 825.26)">
<title>_anonymous_0</title>
<polygon fill="white" stroke="white" points="-4,5 -4,-825.26 758.74,-825.26 758.74,5 -4,5"/>
<!-- 0 -->
<g id="node1" class="node"><title>0</title>
<ellipse fill="none" stroke="black" cx="429.89" cy="-165.6" rx="27" ry="18.5"/>
<text text-anchor="middle" x="429.89" y="-162" font-family="Times Roman,serif" font-size="14.00">0</text>
</g>
<!-- 23 -->
<g id="node2" class="node"><title>23</title>
<ellipse fill="none" stroke="black" cx="448.05" cy="-242.17" rx="27" ry="18.5"/>
<text text-anchor="middle" x="448.05" y="-238.57" font-family="Times Roman,serif" font-size="14.00">23</text>
</g>
<!-- 0&#45;&#45;23 -->
<g id="edge2" class="edge"><title>0&#45;&#45;23</title>
<path fill="none" stroke="black" d="M434.28,-184.14C436.4,-193.07 438.99,-203.98 441.35,-213.92"/>
<polygon fill="black" stroke="black" points="437.982,-214.885 443.69,-223.81 444.793,-213.273 437.982,-214.885"/>
</g>
<!-- 8 -->
<g id="node4" class="node"><title>8</title>
<ellipse fill="none" stroke="black" cx="428.31" cy="-325.82" rx="27" ry="18.5"/>
<text text-anchor="middle" x="428.31" y="-322.22" font-family="Times Roman,serif" font-size="14.00">8</text>
</g>
<!-- 23&#45;&#45;8 -->
<g id="edge4" class="edge"><title>23&#45;&#45;8</title>
<path fill="none" stroke="black" d="M443.67,-260.74C441.14,-271.46 437.9,-285.17 435.06,-297.24"/>
<polygon fill="black" stroke="black" points="431.574,-296.773 432.68,-307.31 438.386,-298.383 431.574,-296.773"/>
</g>
<!-- 30 -->
<g id="node6" class="node"><title>30</title>
<ellipse fill="none" stroke="black" cx="378.66" cy="-394.11" rx="27" ry="18.5"/>
<text text-anchor="middle" x="378.66" y="-390.51" font-family="Times Roman,serif" font-size="14.00">30</text>
</g>
<!-- 8&#45;&#45;30 -->
<g id="edge6" class="edge"><title>8&#45;&#45;30</title>
<path fill="none" stroke="black" d="M416.04,-342.7C410.21,-350.72 403.12,-360.47 396.69,-369.31"/>
<polygon fill="black" stroke="black" points="393.837,-367.283 390.79,-377.43 399.5,-371.397 393.837,-367.283"/>
</g>
<!-- 18 -->
<g id="node36" class="node"><title>18</title>
<ellipse fill="none" stroke="black" cx="308.56" cy="-442.68" rx="27" ry="18.5"/>
<text text-anchor="middle" x="308.56" y="-439.08" font-family="Times Roman,serif" font-size="14.00">18</text>
</g>
<!-- 30&#45;&#45;18 -->
<g id="edge34" class="edge"><title>30&#45;&#45;18</title>
<path fill="none" stroke="black" d="M359.51,-407.39C352.24,-412.42 343.82,-418.25 335.95,-423.71"/>
<polygon fill="black" stroke="black" points="333.919,-420.859 327.69,-429.43 337.904,-426.614 333.919,-420.859"/>
</g>
<!-- 1 -->
<g id="node8" class="node"><title>1</title>
<ellipse fill="none" stroke="black" cx="144.23" cy="-495.99" rx="27" ry="18.5"/>
<text text-anchor="middle" x="144.23" y="-492.39" font-family="Times Roman,serif" font-size="14.00">1</text>
</g>
<!-- 3 -->
<g id="node9" class="node"><title>3</title>
<ellipse fill="none" stroke="black" cx="108.35" cy="-571.57" rx="27" ry="18.5"/>
<text text-anchor="middle" x="108.35" y="-567.97" font-family="Times Roman,serif" font-size="14.00">3</text>
</g>
<!-- 1&#45;&#45;3 -->
<g id="edge8" class="edge"><title>1&#45;&#45;3</title>
<path fill="none" stroke="black" d="M135.73,-513.9C131.39,-523.03 126.03,-534.33 121.2,-544.49"/>
<polygon fill="black" stroke="black" points="117.912,-543.255 116.79,-553.79 124.237,-546.254 117.912,-543.255"/>
</g>
<!-- 17 -->
<g id="node11" class="node"><title>17</title>
<ellipse fill="none" stroke="black" cx="111.9" cy="-653.67" rx="27" ry="18.5"/>
<text text-anchor="middle" x="111.9" y="-650.07" font-family="Times Roman,serif" font-size="14.00">17</text>
</g>
<!-- 3&#45;&#45;17 -->
<g id="edge10" class="edge"><title>3&#45;&#45;17</title>
<path fill="none" stroke="black" d="M109.15,-590.2C109.6,-600.49 110.16,-613.48 110.66,-625.03"/>
<polygon fill="black" stroke="black" points="107.167,-625.268 111.09,-635.11 114.161,-624.97 107.167,-625.268"/>
</g>
<!-- 31 -->
<g id="node13" class="node"><title>31</title>
<ellipse fill="none" stroke="black" cx="198.08" cy="-639.58" rx="27" ry="18.5"/>
<text text-anchor="middle" x="198.08" y="-635.98" font-family="Times Roman,serif" font-size="14.00">31</text>
</g>
<!-- 17&#45;&#45;31 -->
<g id="edge12" class="edge"><title>17&#45;&#45;31</title>
<path fill="none" stroke="black" d="M138.22,-649.36C145.59,-648.16 153.73,-646.83 161.57,-645.55"/>
<polygon fill="black" stroke="black" points="162.319,-648.974 171.62,-643.9 161.185,-642.066 162.319,-648.974"/>
</g>
<!-- 21 -->
<g id="node21" class="node"><title>21</title>
<ellipse fill="none" stroke="black" cx="229.1" cy="-558.81" rx="27" ry="18.5"/>
<text text-anchor="middle" x="229.1" y="-555.21" font-family="Times Roman,serif" font-size="14.00">21</text>
</g>
<!-- 31&#45;&#45;21 -->
<g id="edge20" class="edge"><title>31&#45;&#45;21</title>
<path fill="none" stroke="black" d="M204.97,-621.65C208.91,-611.37 213.96,-598.24 218.41,-586.65"/>
<polygon fill="black" stroke="black" points="221.813,-587.55 222.13,-576.96 215.278,-585.041 221.813,-587.55"/>
</g>
<!-- 2 -->
<g id="node15" class="node"><title>2</title>
<ellipse fill="none" stroke="black" cx="119.08" cy="-338.27" rx="27" ry="18.5"/>
<text text-anchor="middle" x="119.08" y="-334.67" font-family="Times Roman,serif" font-size="14.00">2</text>
</g>
<!-- 6 -->
<g id="node16" class="node"><title>6</title>
<ellipse fill="none" stroke="black" cx="178.69" cy="-397.41" rx="27" ry="18.5"/>
<text text-anchor="middle" x="178.69" y="-393.81" font-family="Times Roman,serif" font-size="14.00">6</text>
</g>
<!-- 2&#45;&#45;6 -->
<g id="edge14" class="edge"><title>2&#45;&#45;6</title>
<path fill="none" stroke="black" d="M134.43,-353.5C140.92,-359.94 148.6,-367.57 155.74,-374.65"/>
<polygon fill="black" stroke="black" points="153.615,-377.472 163.18,-382.03 158.545,-372.503 153.615,-377.472"/>
</g>
<!-- 13 -->
<g id="node18" class="node"><title>13</title>
<ellipse fill="none" stroke="black" cx="225.08" cy="-470.27" rx="27" ry="18.5"/>
<text text-anchor="middle" x="225.08" y="-466.67" font-family="Times Roman,serif" font-size="14.00">13</text>
</g>
<!-- 6&#45;&#45;13 -->
<g id="edge16" class="edge"><title>6&#45;&#45;13</title>
<path fill="none" stroke="black" d="M189.68,-414.68C195.34,-423.57 202.36,-434.59 208.65,-444.47"/>
<polygon fill="black" stroke="black" points="205.843,-446.579 214.17,-453.13 211.746,-442.816 205.843,-446.579"/>
</g>
<!-- 13&#45;&#45;1 -->
<g id="edge18" class="edge"><title>13&#45;&#45;1</title>
<path fill="none" stroke="black" d="M200.38,-478.13C193.49,-480.32 185.87,-482.75 178.52,-485.08"/>
<polygon fill="black" stroke="black" points="177.242,-481.814 168.78,-488.19 179.371,-488.482 177.242,-481.814"/>
</g>
<!-- 21&#45;&#45;13 -->
<g id="edge56" class="edge"><title>21&#45;&#45;13</title>
<path fill="none" stroke="black" d="M228.25,-540.03C227.71,-528.18 227.01,-512.62 226.4,-499.21"/>
<polygon fill="black" stroke="black" points="229.887,-498.848 225.93,-489.02 222.895,-499.171 229.887,-498.848"/>
</g>
<!-- 4 -->
<g id="node23" class="node"><title>4</title>
<ellipse fill="none" stroke="black" cx="640.77" cy="-19.5" rx="27" ry="18.5"/>
<text text-anchor="middle" x="640.77" y="-15.9" font-family="Times Roman,serif" font-size="14.00">4</text>
</g>
<!-- 27 -->
<g id="node24" class="node"><title>27</title>
<ellipse fill="none" stroke="black" cx="614.95" cy="-90.428" rx="27" ry="18.5"/>
<text text-anchor="middle" x="614.95" y="-86.828" font-family="Times Roman,serif" font-size="14.00">27</text>
</g>
<!-- 4&#45;&#45;27 -->
<g id="edge22" class="edge"><title>4&#45;&#45;27</title>
<path fill="none" stroke="black" d="M634.12,-37.766C631.33,-45.436 628.02,-54.523 624.95,-62.97"/>
<polygon fill="black" stroke="black" points="621.624,-61.876 621.49,-72.47 628.201,-64.2716 621.624,-61.876"/>
</g>
<!-- 24 -->
<g id="node26" class="node"><title>24</title>
<ellipse fill="none" stroke="black" cx="597.99" cy="-169.49" rx="27" ry="18.5"/>
<text text-anchor="middle" x="597.99" y="-165.89" font-family="Times Roman,serif" font-size="14.00">24</text>
</g>
<!-- 27&#45;&#45;24 -->
<g id="edge24" class="edge"><title>27&#45;&#45;24</title>
<path fill="none" stroke="black" d="M611.02,-108.76C608.95,-118.37 606.38,-130.36 604.07,-141.13"/>
<polygon fill="black" stroke="black" points="600.632,-140.469 601.96,-150.98 607.477,-141.935 600.632,-140.469"/>
</g>
<!-- 25 -->
<g id="node28" class="node"><title>25</title>
<ellipse fill="none" stroke="black" cx="528.43" cy="-212.26" rx="27" ry="18.5"/>
<text text-anchor="middle" x="528.43" y="-208.66" font-family="Times Roman,serif" font-size="14.00">25</text>
</g>
<!-- 24&#45;&#45;25 -->
<g id="edge26" class="edge"><title>24&#45;&#45;25</title>
<path fill="none" stroke="black" d="M577.87,-181.86C571.58,-185.73 564.51,-190.08 557.72,-194.25"/>
<polygon fill="black" stroke="black" points="555.432,-191.548 548.75,-199.77 559.101,-197.51 555.432,-191.548"/>
</g>
<!-- 25&#45;&#45;23 -->
<g id="edge40" class="edge"><title>25&#45;&#45;23</title>
<path fill="none" stroke="black" d="M504.31,-221.24C497.09,-223.92 489.05,-226.92 481.35,-229.78"/>
<polygon fill="black" stroke="black" points="480.02,-226.54 471.87,-233.31 482.463,-233.1 480.02,-226.54"/>
</g>
<!-- 5 -->
<g id="node30" class="node"><title>5</title>
<ellipse fill="none" stroke="black" cx="570.38" cy="-515.5" rx="27" ry="18.5"/>
<text text-anchor="middle" x="570.38" y="-511.9" font-family="Times Roman,serif" font-size="14.00">5</text>
</g>
<!-- 5&#45;&#45;5 -->
<g id="edge28" class="edge"><title>5&#45;&#45;5</title>
<path fill="none" stroke="black" d="M595.83,-522.19C606.41,-522.65 615.38,-520.42 615.38,-515.5 615.38,-512.27 611.52,-510.2 605.87,-509.29"/>
<polygon fill="black" stroke="black" points="605.986,-505.792 595.83,-508.81 605.651,-512.784 605.986,-505.792"/>
</g>
<!-- 7 -->
<g id="node32" class="node"><title>7</title>
<ellipse fill="none" stroke="black" cx="658.74" cy="-618.42" rx="27" ry="18.5"/>
<text text-anchor="middle" x="658.74" y="-614.82" font-family="Times Roman,serif" font-size="14.00">7</text>
</g>
<!-- 29 -->
<g id="node33" class="node"><title>29</title>
<ellipse fill="none" stroke="black" cx="586.83" cy="-591.49" rx="27" ry="18.5"/>
<text text-anchor="middle" x="586.83" y="-587.89" font-family="Times Roman,serif" font-size="14.00">29</text>
</g>
<!-- 7&#45;&#45;29 -->
<g id="edge30" class="edge"><title>7&#45;&#45;29</title>
<path fill="none" stroke="black" d="M634.79,-609.46C630.23,-607.75 625.38,-605.93 620.58,-604.13"/>
<polygon fill="black" stroke="black" points="621.512,-600.742 610.92,-600.51 619.056,-607.297 621.512,-600.742"/>
</g>
<!-- 29&#45;&#45;5 -->
<g id="edge32" class="edge"><title>29&#45;&#45;5</title>
<path fill="none" stroke="black" d="M582.85,-573.1C580.96,-564.39 578.67,-553.79 576.57,-544.06"/>
<polygon fill="black" stroke="black" points="579.925,-543.018 574.38,-533.99 573.085,-544.505 579.925,-543.018"/>
</g>
<!-- 18&#45;&#45;13 -->
<g id="edge36" class="edge"><title>18&#45;&#45;13</title>
<path fill="none" stroke="black" d="M283.97,-450.81C276.15,-453.39 267.37,-456.3 259.02,-459.06"/>
<polygon fill="black" stroke="black" points="257.9,-455.744 249.5,-462.2 260.093,-462.391 257.9,-455.744"/>
</g>
<!-- 9 -->
<g id="node39" class="node"><title>9</title>
<ellipse fill="none" stroke="black" cx="675.73" cy="-195.26" rx="27" ry="18.5"/>
<text text-anchor="middle" x="675.73" y="-191.66" font-family="Times Roman,serif" font-size="14.00">9</text>
</g>
<!-- 9&#45;&#45;24 -->
<g id="edge38" class="edge"><title>9&#45;&#45;24</title>
<path fill="none" stroke="black" d="M651.13,-187.11C645.12,-185.11 638.58,-182.94 632.2,-180.83"/>
<polygon fill="black" stroke="black" points="633.023,-177.416 622.43,-177.59 630.82,-184.06 633.023,-177.416"/>
</g>
<!-- 10 -->
<g id="node42" class="node"><title>10</title>
<ellipse fill="none" stroke="black" cx="444.8" cy="-451.09" rx="27" ry="18.5"/>
<text text-anchor="middle" x="444.8" y="-447.49" font-family="Times Roman,serif" font-size="14.00">10</text>
</g>
<!-- 10&#45;&#45;30 -->
<g id="edge42" class="edge"><title>10&#45;&#45;30</title>
<path fill="none" stroke="black" d="M427.77,-436.42C420.42,-430.09 411.68,-422.56 403.62,-415.62"/>
<polygon fill="black" stroke="black" points="405.73,-412.818 395.87,-408.94 401.16,-418.12 405.73,-412.818"/>
</g>
<!-- 11 -->
<g id="node44" class="node"><title>11</title>
<ellipse fill="none" stroke="black" cx="60.29" cy="-801.76" rx="27" ry="18.5"/>
<text text-anchor="middle" x="60.29" y="-798.16" font-family="Times Roman,serif" font-size="14.00">11</text>
</g>
<!-- 19 -->
<g id="node45" class="node"><title>19</title>
<ellipse fill="none" stroke="black" cx="93.396" cy="-732.85" rx="27" ry="18.5"/>
<text text-anchor="middle" x="93.396" y="-729.25" font-family="Times Roman,serif" font-size="14.00">19</text>
</g>
<!-- 11&#45;&#45;19 -->
<g id="edge44" class="edge"><title>11&#45;&#45;19</title>
<path fill="none" stroke="black" d="M68.816,-784.01C72.341,-776.68 76.507,-768 80.398,-759.91"/>
<polygon fill="black" stroke="black" points="83.6087,-761.309 84.785,-750.78 77.2992,-758.278 83.6087,-761.309"/>
</g>
<!-- 19&#45;&#45;17 -->
<g id="edge46" class="edge"><title>19&#45;&#45;17</title>
<path fill="none" stroke="black" d="M97.687,-714.49C99.935,-704.86 102.74,-692.86 105.26,-682.07"/>
<polygon fill="black" stroke="black" points="108.697,-682.744 107.56,-672.21 101.88,-681.153 108.697,-682.744"/>
</g>
<!-- 12 -->
<g id="node48" class="node"><title>12</title>
<ellipse fill="none" stroke="black" cx="725.74" cy="-647.97" rx="27" ry="18.5"/>
<text text-anchor="middle" x="725.74" y="-644.37" font-family="Times Roman,serif" font-size="14.00">12</text>
</g>
<!-- 12&#45;&#45;7 -->
<g id="edge48" class="edge"><title>12&#45;&#45;7</title>
<path fill="none" stroke="black" d="M702.68,-637.8C698.85,-636.11 694.82,-634.33 690.81,-632.56"/>
<polygon fill="black" stroke="black" points="692.173,-629.336 681.61,-628.51 689.352,-635.742 692.173,-629.336"/>
</g>
<!-- 14 -->
<g id="node50" class="node"><title>14</title>
<ellipse fill="none" stroke="black" cx="380.9" cy="-191.69" rx="27" ry="18.5"/>
<text text-anchor="middle" x="380.9" y="-188.09" font-family="Times Roman,serif" font-size="14.00">14</text>
</g>
<!-- 14&#45;&#45;23 -->
<g id="edge50" class="edge"><title>14&#45;&#45;23</title>
<path fill="none" stroke="black" d="M399.25,-205.48C406.06,-210.6 413.93,-216.52 421.33,-222.09"/>
<polygon fill="black" stroke="black" points="419.624,-225.187 429.72,-228.4 423.832,-219.592 419.624,-225.187"/>
</g>
<!-- 15 -->
<g id="node52" class="node"><title>15</title>
<ellipse fill="none" stroke="black" cx="28" cy="-658.01" rx="27" ry="18.5"/>
<text text-anchor="middle" x="28" y="-654.41" font-family="Times Roman,serif" font-size="14.00">15</text>
</g>
<!-- 15&#45;&#45;17 -->
<g id="edge52" class="edge"><title>15&#45;&#45;17</title>
<path fill="none" stroke="black" d="M55.007,-656.61C61.294,-656.29 68.096,-655.93 74.736,-655.59"/>
<polygon fill="black" stroke="black" points="75.1341,-659.074 84.939,-655.06 74.7709,-652.084 75.1341,-659.074"/>
</g>
<!-- 16 -->
<g id="node54" class="node"><title>16</title>
<ellipse fill="none" stroke="black" cx="358.84" cy="-508.42" rx="27" ry="18.5"/>
<text text-anchor="middle" x="358.84" y="-504.82" font-family="Times Roman,serif" font-size="14.00">16</text>
</g>
<!-- 16&#45;&#45;18 -->
<g id="edge54" class="edge"><title>16&#45;&#45;18</title>
<path fill="none" stroke="black" d="M346.15,-491.83C340.54,-484.49 333.82,-475.71 327.62,-467.6"/>
<polygon fill="black" stroke="black" points="330.277,-465.313 321.42,-459.5 324.719,-469.568 330.277,-465.313"/>
</g>
<!-- 20 -->
<g id="node57" class="node"><title>20</title>
<ellipse fill="none" stroke="black" cx="247.01" cy="-706.11" rx="27" ry="18.5"/>
<text text-anchor="middle" x="247.01" y="-702.51" font-family="Times Roman,serif" font-size="14.00">20</text>
</g>
<!-- 20&#45;&#45;31 -->
<g id="edge58" class="edge"><title>20&#45;&#45;31</title>
<path fill="none" stroke="black" d="M234.66,-689.32C229.12,-681.78 222.46,-672.72 216.35,-664.42"/>
<polygon fill="black" stroke="black" points="218.996,-662.11 210.25,-656.13 213.358,-666.259 218.996,-662.11"/>
</g>
<!-- 22 -->
<g id="node59" class="node"><title>22</title>
<ellipse fill="none" stroke="black" cx="524" cy="-637.35" rx="27" ry="18.5"/>
<text text-anchor="middle" x="524" y="-633.75" font-family="Times Roman,serif" font-size="14.00">22</text>
</g>
<!-- 22&#45;&#45;29 -->
<g id="edge60" class="edge"><title>22&#45;&#45;29</title>
<path fill="none" stroke="black" d="M542.51,-623.84C547.96,-619.86 554.03,-615.43 559.9,-611.15"/>
<polygon fill="black" stroke="black" points="562.223,-613.787 568.23,-605.06 558.092,-608.136 562.223,-613.787"/>
</g>
<!-- 26 -->
<g id="node61" class="node"><title>26</title>
<ellipse fill="none" stroke="black" cx="68.955" cy="-457.36" rx="27" ry="18.5"/>
<text text-anchor="middle" x="68.955" y="-453.76" font-family="Times Roman,serif" font-size="14.00">26</text>
</g>
<!-- 26&#45;&#45;1 -->
<g id="edge62" class="edge"><title>26&#45;&#45;1</title>
<path fill="none" stroke="black" d="M90.727,-468.53C97.827,-472.18 105.85,-476.29 113.48,-480.21"/>
<polygon fill="black" stroke="black" points="112.015,-483.392 122.51,-484.84 115.208,-477.163 112.015,-483.392"/>
</g>
<!-- 28 -->
<g id="node63" class="node"><title>28</title>
<ellipse fill="none" stroke="black" cx="504.38" cy="-362.5" rx="27" ry="18.5"/>
<text text-anchor="middle" x="504.38" y="-358.9" font-family="Times Roman,serif" font-size="14.00">28</text>
</g>
<!-- 28&#45;&#45;8 -->
<g id="edge64" class="edge"><title>28&#45;&#45;8</title>
<path fill="none" stroke="black" d="M481.97,-351.7C475.01,-348.34 467.2,-344.57 459.74,-340.97"/>
<polygon fill="black" stroke="black" points="461.098,-337.739 450.57,-336.55 458.058,-344.045 461.098,-337.739"/>
</g>
</g>
</svg>
