<?xml version="1.0" encoding="UTF-8" standalone="no"?>
<!DOCTYPE svg PUBLIC "-//W3C//DTD SVG 1.1//EN"
 "http://www.w3.org/Graphics/SVG/1.1/DTD/svg11.dtd">
<!-- Generated by graphviz version 2.26.3 (20100126.1600)
 -->
<!-- Title: _anonymous_0 Pages: 1 -->
<svg width="401pt" height="564pt"
 viewBox="0.00 0.00 401.00 564.00" xmlns="http://www.w3.org/2000/svg" xmlns:xlink="http://www.w3.org/1999/xlink">
<g id="graph1" class="graph" transform="scale(1 1) rotate(0) translate(4 560)">
<title>_anonymous_0</title>
<polygon fill="white" stroke="white" points="-4,5 -4,-560 398,-560 398,5 -4,5"/>
<!-- 0 -->
<g id="node1" class="node"><title>0</title>
<ellipse fill="none" stroke="black" cx="201" cy="-537" rx="45" ry="18.5"/>
<text text-anchor="middle" x="201" y="-533.4" font-family="Times Roman,serif" font-size="14.00">gene 0</text>
</g>
<!-- 4 -->
<g id="node2" class="node"><title>4</title>
<ellipse fill="none" stroke="black" cx="45" cy="-19" rx="45" ry="18.5"/>
<text text-anchor="middle" x="45" y="-15.4" font-family="Times Roman,serif" font-size="14.00">gene 4</text>
</g>
<!-- 0&#45;&#45;4 -->
<g id="edge2" class="edge"><title>0&#45;&#45;4</title>
<path fill="none" stroke="black" d="M163.13,-526.82C106.68,-509.07 7,-466.74 7,-389 7,-389 7,-389 7,-167 7,-124.05 22.2,-76.226 33.374,-46.875"/>
<polygon fill="black" stroke="black" points="36.7355,-47.8896 37.126,-37.302 30.2182,-45.3352 36.7355,-47.8896"/>
</g>
<!-- 1 -->
<g id="node4" class="node"><title>1</title>
<ellipse fill="none" stroke="black" cx="302" cy="-463" rx="45" ry="18.5"/>
<text text-anchor="middle" x="302" y="-459.4" font-family="Times Roman,serif" font-size="14.00">gene 1</text>
</g>
<!-- 0&#45;&#45;1 -->
<g id="edge4" class="edge"><title>0&#45;&#45;1</title>
<path fill="none" stroke="black" d="M223.42,-520.58C237.54,-510.23 255.96,-496.74 271.41,-485.41"/>
<polygon fill="black" stroke="black" points="273.647,-488.11 279.65,-479.38 269.513,-482.461 273.647,-488.11"/>
</g>
<!-- 3 -->
<g id="node8" class="node"><title>3</title>
<ellipse fill="none" stroke="black" cx="156" cy="-389" rx="45" ry="18.5"/>
<text text-anchor="middle" x="156" y="-385.4" font-family="Times Roman,serif" font-size="14.00">gene 3</text>
</g>
<!-- 4&#45;&#45;3 -->
<g id="edge12" class="edge"><title>4&#45;&#45;3</title>
<path fill="none" stroke="black" d="M45,-37.691C45,-65.766 45,-120.49 45,-167 45,-241 45,-241 45,-241 45,-286.54 60.012,-298.08 88,-334 97.781,-346.55 110.95,-358.05 123.1,-367.24"/>
<polygon fill="black" stroke="black" points="121.152,-370.152 131.29,-373.23 125.285,-364.502 121.152,-370.152"/>
</g>
<!-- 9 -->
<g id="node6" class="node"><title>9</title>
<ellipse fill="none" stroke="black" cx="264" cy="-315" rx="45" ry="18.5"/>
<text text-anchor="middle" x="264" y="-311.4" font-family="Times Roman,serif" font-size="14.00">gene 9</text>
</g>
<!-- 1&#45;&#45;9 -->
<g id="edge6" class="edge"><title>1&#45;&#45;9</title>
<path fill="none" stroke="black" d="M297.26,-444.55C290.75,-419.19 278.97,-373.29 271.31,-343.49"/>
<polygon fill="black" stroke="black" points="274.67,-342.5 268.8,-333.68 267.888,-344.236 274.67,-342.5"/>
</g>
<!-- 1&#45;&#45;3 -->
<g id="edge8" class="edge"><title>1&#45;&#45;3</title>
<path fill="none" stroke="black" d="M273.5,-448.56C250.69,-436.99 218.51,-420.68 193.59,-408.05"/>
<polygon fill="black" stroke="black" points="194.923,-404.802 184.42,-403.41 191.763,-411.048 194.923,-404.802"/>
</g>
<!-- 8 -->
<g id="node10" class="node"><title>8</title>
<ellipse fill="none" stroke="black" cx="320" cy="-241" rx="45" ry="18.5"/>
<text text-anchor="middle" x="320" y="-237.4" font-family="Times Roman,serif" font-size="14.00">gene 8</text>
</g>
<!-- 1&#45;&#45;8 -->
<g id="edge10" class="edge"><title>1&#45;&#45;8</title>
<path fill="none" stroke="black" d="M304.93,-444.26C308.71,-419.21 315.14,-373.39 318,-334 319.56,-312.46 320.04,-288.04 320.14,-269.63"/>
<polygon fill="black" stroke="black" points="323.64,-269.557 320.16,-259.55 316.64,-269.543 323.64,-269.557"/>
</g>
<!-- 9&#45;&#45;0 -->
<g id="edge24" class="edge"><title>9&#45;&#45;0</title>
<path fill="none" stroke="black" d="M258.71,-333.65C247.66,-372.59 222.07,-462.74 209,-508.8"/>
<polygon fill="black" stroke="black" points="205.625,-507.874 206.26,-518.45 212.358,-509.786 205.625,-507.874"/>
</g>
<!-- 3&#45;&#45;0 -->
<g id="edge18" class="edge"><title>3&#45;&#45;0</title>
<path fill="none" stroke="black" d="M161.68,-407.68C169.43,-433.17 183.39,-479.08 192.42,-508.79"/>
<polygon fill="black" stroke="black" points="189.13,-510.002 195.39,-518.55 195.827,-507.964 189.13,-510.002"/>
</g>
<!-- 3&#45;&#45;9 -->
<g id="edge16" class="edge"><title>3&#45;&#45;9</title>
<path fill="none" stroke="black" d="M179.17,-373.13C194.58,-362.57 215.03,-348.55 231.99,-336.93"/>
<polygon fill="black" stroke="black" points="234.228,-339.639 240.5,-331.1 230.272,-333.864 234.228,-339.639"/>
</g>
<!-- 7 -->
<g id="node13" class="node"><title>7</title>
<ellipse fill="none" stroke="black" cx="156" cy="-315" rx="45" ry="18.5"/>
<text text-anchor="middle" x="156" y="-311.4" font-family="Times Roman,serif" font-size="14.00">gene 7</text>
</g>
<!-- 3&#45;&#45;7 -->
<g id="edge14" class="edge"><title>3&#45;&#45;7</title>
<path fill="none" stroke="black" d="M156,-370.33C156,-362.26 156,-352.65 156,-343.71"/>
<polygon fill="black" stroke="black" points="159.5,-343.67 156,-333.67 152.5,-343.67 159.5,-343.67"/>
</g>
<!-- 5 -->
<g id="node17" class="node"><title>5</title>
<ellipse fill="none" stroke="black" cx="160" cy="-93" rx="45" ry="18.5"/>
<text text-anchor="middle" x="160" y="-89.4" font-family="Times Roman,serif" font-size="14.00">gene 5</text>
</g>
<!-- 3&#45;&#45;5 -->
<g id="edge20" class="edge"><title>3&#45;&#45;5</title>
<path fill="none" stroke="black" d="M133.3,-372.93C121.56,-363.17 108.38,-349.61 102,-334 83.162,-287.92 91.562,-270.67 102,-222 109.99,-184.74 129.6,-145.26 143.81,-119.93"/>
<polygon fill="black" stroke="black" points="147.021,-121.366 148.96,-110.95 140.949,-117.883 147.021,-121.366"/>
</g>
<!-- 6 -->
<g id="node19" class="node"><title>6</title>
<ellipse fill="none" stroke="black" cx="202" cy="-167" rx="45" ry="18.5"/>
<text text-anchor="middle" x="202" y="-163.4" font-family="Times Roman,serif" font-size="14.00">gene 6</text>
</g>
<!-- 8&#45;&#45;6 -->
<g id="edge22" class="edge"><title>8&#45;&#45;6</title>
<path fill="none" stroke="black" d="M286.59,-220.05C270.52,-209.97 251.31,-197.92 235.26,-187.86"/>
<polygon fill="black" stroke="black" points="284.929,-223.14 295.26,-225.49 288.65,-217.21 284.929,-223.14"/>
<polygon fill="black" stroke="black" points="237.031,-184.839 226.7,-182.49 233.311,-190.769 237.031,-184.839"/>
</g>
<!-- 2 -->
<g id="node22" class="node"><title>2</title>
<ellipse fill="none" stroke="black" cx="156" cy="-241" rx="45" ry="18.5"/>
<text text-anchor="middle" x="156" y="-237.4" font-family="Times Roman,serif" font-size="14.00">gene 2</text>
</g>
<!-- 7&#45;&#45;2 -->
<g id="edge38" class="edge"><title>7&#45;&#45;2</title>
<path fill="none" stroke="black" d="M156,-296.33C156,-288.26 156,-278.65 156,-269.71"/>
<polygon fill="black" stroke="black" points="159.5,-269.67 156,-259.67 152.5,-269.67 159.5,-269.67"/>
</g>
<!-- 5&#45;&#45;4 -->
<g id="edge34" class="edge"><title>5&#45;&#45;4</title>
<path fill="none" stroke="black" d="M135.61,-77.307C118.84,-66.514 96.367,-52.054 77.998,-40.234"/>
<polygon fill="black" stroke="black" points="79.6564,-37.1391 69.353,-34.671 75.8684,-43.0257 79.6564,-37.1391"/>
</g>
<!-- 5&#45;&#45;1 -->
<g id="edge36" class="edge"><title>5&#45;&#45;1</title>
<path fill="none" stroke="black" d="M201.92,-99.984C269.01,-113.82 393,-151.51 393,-241 393,-315 393,-315 393,-315 393,-364.63 355.41,-411.6 328.55,-438.83"/>
<polygon fill="black" stroke="black" points="325.969,-436.459 321.3,-445.97 330.881,-441.447 325.969,-436.459"/>
</g>
<!-- 6&#45;&#45;7 -->
<g id="edge30" class="edge"><title>6&#45;&#45;7</title>
<path fill="none" stroke="black" d="M214.38,-184.85C226.09,-204.12 240.19,-235.35 228,-260 220.74,-274.69 207.46,-286.53 194.27,-295.41"/>
<polygon fill="black" stroke="black" points="192.276,-292.529 185.68,-300.82 196.007,-298.452 192.276,-292.529"/>
</g>
<!-- 6&#45;&#45;5 -->
<g id="edge32" class="edge"><title>6&#45;&#45;5</title>
<path fill="none" stroke="black" d="M191.62,-148.71C186.68,-140.02 180.69,-129.45 175.25,-119.87"/>
<polygon fill="black" stroke="black" points="178.241,-118.048 170.26,-111.08 172.153,-121.504 178.241,-118.048"/>
</g>
<!-- 2&#45;&#45;6 -->
<g id="edge26" class="edge"><title>2&#45;&#45;6</title>
<path fill="none" stroke="black" d="M167.37,-222.71C172.83,-213.93 179.48,-203.24 185.48,-193.58"/>
<polygon fill="black" stroke="black" points="188.456,-195.421 190.76,-185.08 182.51,-191.728 188.456,-195.421"/>
</g>
<!-- 2&#45;&#45;2 -->
<g id="edge28" class="edge"><title>2&#45;&#45;2</title>
<path fill="none" stroke="black" d="M187.44,-254.35C204,-256.51 219,-252.06 219,-241 219,-232.28 209.66,-227.67 197.59,-227.17"/>
<polygon fill="black" stroke="black" points="197.263,-223.681 187.44,-227.65 197.594,-230.674 197.263,-223.681"/>
</g>
</g>
</svg>
